<svg xmlns="http://www.w3.org/2000/svg" viewBox="0 0 160 120" fill="none">
  <ellipse cx="80" cy="108" rx="60" ry="5" fill="#a7f3d0" opacity="0.5"/>
  <!-- Regal-Brett -->
  <rect x="20" y="80" width="120" height="6" rx="2" fill="#10b981"/>
  <rect x="20" y="50" width="120" height="6" rx="2" fill="#10b981"/>
  <!-- Aktenordner -->
  <rect x="28" y="56" width="14" height="24" fill="#ffffff" stroke="#059669" stroke-width="1.5"/>
  <rect x="44" y="56" width="14" height="24" fill="#fef3c7" stroke="#d97706" stroke-width="1.5"/>
  <rect x="60" y="56" width="14" height="24" fill="#ffffff" stroke="#059669" stroke-width="1.5"/>
  <rect x="76" y="56" width="14" height="24" fill="#dbeafe" stroke="#0284c7" stroke-width="1.5"/>
  <rect x="92" y="56" width="14" height="24" fill="#ffffff" stroke="#059669" stroke-width="1.5"/>
  <rect x="108" y="56" width="14" height="24" fill="#fce7f3" stroke="#be185d" stroke-width="1.5"/>
  <rect x="124" y="56" width="14" height="24" fill="#ffffff" stroke="#059669" stroke-width="1.5"/>
  <!-- Kleines Schloss als GoBD-Symbol -->
  <rect x="68" y="20" width="24" height="20" rx="3" fill="#10b981"/>
  <path d="M 73 20 L 73 14 Q 73 10 80 10 Q 87 10 87 14 L 87 20" stroke="#10b981" stroke-width="2.5" fill="none"/>
  <circle cx="80" cy="30" r="2" fill="#ffffff"/>
</svg>
