<svg xmlns="http://www.w3.org/2000/svg" viewBox="0 0 240 160" fill="none">
  <!-- Konfetti -->
  <rect x="20" y="20" width="6" height="6" fill="#10b981" transform="rotate(15 23 23)"/>
  <rect x="200" y="30" width="6" height="6" fill="#34d399" transform="rotate(-20 203 33)"/>
  <rect x="40" y="100" width="6" height="6" fill="#fbbf24" transform="rotate(45 43 103)"/>
  <rect x="190" y="110" width="6" height="6" fill="#10b981" transform="rotate(30 193 113)"/>
  <circle cx="60" cy="40" r="3" fill="#fbbf24"/>
  <circle cx="170" cy="50" r="3" fill="#34d399"/>
  <circle cx="80" cy="120" r="2.5" fill="#10b981"/>
  <circle cx="155" cy="125" r="2.5" fill="#fbbf24"/>
  <!-- Schild mit Häkchen -->
  <path d="M 120 30 L 165 50 L 165 90 Q 165 120 120 135 Q 75 120 75 90 L 75 50 Z"
        fill="#10b981" stroke="#059669" stroke-width="2"/>
  <!-- Großes Häkchen -->
  <path d="M 95 85 L 115 105 L 150 65" stroke="#ffffff" stroke-width="6" stroke-linecap="round" stroke-linejoin="round" fill="none"/>
</svg>
